M48
;DRILL file {kicad (2015-01-16 BZR 5376)-product} date 2016/03/19 21:37:46
;FORMAT={3:3/ absolute / metric / suppress trailing zeros}
FMAT,2
METRIC,LZ
T1C0.650
T2C0.700
T3C0.800
T4C0.813
T5C1.000
T6C1.001
T7C1.016
T8C1.100
T9C1.200
T10C1.500
T11C3.300
%
G90
G05
M71
T1
X096967Y-055993
X096967Y-058533
X096967Y-061073
X102809Y-05612
X102809Y-05866
X102809Y-0612
T2
X079949Y-050278
X080076Y-052056
X080152Y-054088
X087696Y-050278
X087874Y-052056
X087874Y-054037
X101285Y-043293
X101285Y-045833
X106045Y-103505
X106045Y-105283
X106086Y-110679
X106086Y-112762
X106086Y-115099
X106134Y-108674
X114872Y-103505
X114872Y-105283
X124678Y-108647
X124678Y-110628
X124678Y-112813
X124678Y-115099
X140017Y-100965
X140081Y-105347
X141415Y-100902
X141478Y-105283
X147894Y-046214
X150434Y-046214
X152337Y-08001
X152337Y-088646
T3
X092519Y-056007
X092519Y-058547
X09859Y-051968
X10113Y-051968
T4
X067884Y-05739
X067884Y-05993
X067884Y-06247
X067884Y-06501
X067884Y-06755
X067884Y-07009
X067884Y-07263
X067884Y-07517
X067884Y-07771
X067884Y-08025
X067884Y-08279
X067884Y-08533
X067884Y-08787
X067884Y-09041
X067884Y-09295
X067884Y-09549
X067884Y-09803
X067884Y-10057
X067884Y-10311
X067884Y-10565
X067884Y-10819
X067884Y-11073
X067884Y-11327
X067884Y-11581
X067884Y-11835
X067884Y-12089
X088204Y-05739
X088204Y-05993
X088204Y-06247
X088204Y-06501
X088204Y-06755
X088204Y-07009
X088204Y-07263
X088204Y-07517
X088204Y-07771
X088204Y-08025
X088204Y-08279
X088204Y-08533
X088204Y-08787
X088204Y-09041
X088204Y-09295
X088204Y-09549
X088204Y-09803
X088204Y-10057
X088204Y-10311
X088204Y-10565
X088204Y-10819
X088204Y-11073
X088204Y-11327
X088204Y-11581
X088204Y-11835
X088204Y-12089
T5
X108143Y-058533
X108143Y-061073
X108143Y-063613
X149037Y-053199
X149037Y-055739
X149037Y-058279
T6
X135067Y-058025
X135067Y-060565
X135067Y-063105
T7
X063246Y-072898
X063246Y-075438
X063246Y-077978
X063246Y-080518
X149418Y-074916
X149418Y-077456
X149418Y-079996
X149418Y-083552
X149418Y-086092
X149418Y-088632
T8
X071095Y-128702
X071997Y-045845
X073635Y-128702
X074537Y-045845
X076175Y-128702
X077077Y-045845
X079617Y-045845
X081509Y-128702
X084049Y-128702
X084902Y-045833
X086589Y-128702
X087442Y-045833
X089982Y-045833
X091923Y-128702
X092522Y-045833
X094463Y-128702
X095062Y-045833
X097003Y-128702
X101791Y-072453
X101791Y-074994
X101791Y-077534
T9
X130556Y-077724
X140716Y-077724
T10
X11081Y-0485
X11178Y-12216
X11873Y-0485
X1197Y-12216
X132146Y-0485
X13718Y-12216
X140066Y-0485
X1451Y-12216
T11
X065Y-04
X065Y-13
X155Y-04
X155Y-13
T0
M30
